<svg version="1.1" id="Layer_1" xmlns="http://www.w3.org/2000/svg" xmlns:xlink="http://www.w3.org/1999/xlink" x="0px" y="0px"
	 width="100%" viewBox="0 0 1024 1024" enable-background="new 0 0 1024 1024" xml:space="preserve">
<path fill="#000000" opacity="1.000000" stroke="none" 
	d="
M945.000000,1025.000000 
	C630.000000,1025.000000 315.500000,1025.000000 1.000000,1025.000000 
	C1.000000,683.666687 1.000000,342.333344 1.000000,1.000000 
	C342.333344,1.000000 683.666687,1.000000 1025.000000,1.000000 
	C1025.000000,342.333344 1025.000000,683.666687 1025.000000,1025.000000 
	C998.500000,1025.000000 972.000000,1025.000000 945.000000,1025.000000 
M186.768570,512.249512 
	C183.178925,509.220306 179.589264,506.191101 175.335815,502.838074 
	C167.482895,498.586761 159.304092,496.915985 150.235275,497.854156 
	C138.532822,499.064728 129.729248,504.094147 122.109711,513.122314 
	C109.594276,527.951477 110.678101,552.815491 124.166756,566.662476 
	C130.339325,573.422241 137.887451,577.601074 147.766159,579.227356 
	C156.754913,581.795532 165.375626,579.337097 173.223862,575.732849 
	C182.993469,571.246216 189.720428,562.973572 193.462952,552.890442 
	C196.057404,545.900452 197.632904,538.498840 194.984268,530.211426 
	C192.337219,524.423706 189.690155,518.636047 186.768570,512.249512 
M112.859489,576.436646 
	C112.560806,576.228394 112.262131,576.020081 111.810654,575.379395 
	C111.810654,575.379395 111.393456,575.188843 111.070763,574.634583 
	C105.416222,567.740417 99.761673,560.846252 93.836189,553.311646 
	C89.949776,548.349854 86.063354,543.388062 82.125481,538.360535 
	C85.740334,534.023254 89.371536,529.807617 92.847572,525.467773 
	C101.702621,514.412354 110.640930,503.417969 119.239456,492.164948 
	C123.743546,486.270447 130.180405,481.360840 129.128052,472.361877 
	C128.355438,465.754974 121.308388,460.398865 114.659615,461.609528 
	C107.241341,462.960297 103.692627,468.412659 99.322266,474.163208 
	C85.272247,491.599915 71.105988,508.944641 57.212757,526.505432 
	C47.835907,538.357666 51.724522,543.643494 58.858997,552.363281 
	C61.218285,555.246826 63.552608,558.150818 66.172813,561.672363 
	C71.167175,567.779480 76.161537,573.886658 81.188461,580.671692 
	C82.464180,582.150818 83.762886,583.610840 85.011536,585.112488 
	C89.977180,591.084412 94.927216,597.069275 100.164886,603.685547 
	C102.339340,606.513550 104.232056,609.629211 106.755791,612.100525 
	C110.330299,615.600708 118.128220,616.801514 122.435242,614.407227 
	C129.994919,610.204529 131.203232,599.934937 126.249382,593.751282 
	C121.772758,588.163330 117.294838,582.576416 112.859489,576.436646 
M672.245789,533.727905 
	C677.167603,547.387024 690.824158,555.644775 704.053101,552.960754 
	C716.158325,550.504761 724.877197,542.667725 724.705688,534.383423 
	C719.601074,533.567383 714.501831,532.752136 709.521851,531.955994 
	C705.590637,539.775513 702.422119,540.997314 695.462891,539.231323 
	C690.272034,537.914001 690.149353,533.238159 687.987061,529.131836 
	C689.279968,528.422363 690.564209,527.115906 691.867126,527.097107 
	C703.114502,526.934265 714.365173,527.003418 726.408691,527.003418 
	C725.905762,521.634583 725.948120,516.681091 724.894104,511.973083 
	C722.777100,502.516327 717.541565,493.698364 704.369446,491.336334 
	C694.286560,489.528320 683.320557,491.789917 676.908142,501.170776 
	C670.097046,511.134857 669.958313,521.829834 672.245789,533.727905 
M792.020447,515.120667 
	C791.947754,504.705353 783.724976,494.186462 775.883484,492.217896 
	C771.518799,491.122131 766.451782,491.113220 762.091431,492.191803 
	C757.727234,493.271332 753.848816,496.314972 750.082825,498.324097 
	C750.014832,496.950989 749.896606,494.563873 749.786987,492.351074 
	C744.601318,492.351074 739.887390,492.351074 734.994446,492.351074 
	C734.994446,502.813904 734.985413,512.927856 735.002075,523.041870 
	C735.005371,525.029724 735.108276,527.017395 735.023987,529.932373 
	C735.023987,544.524109 735.023987,559.115784 735.023987,573.707031 
	C740.623230,573.707031 745.685181,573.707031 751.234375,573.707031 
	C751.234375,564.083496 751.234375,554.751770 751.234375,544.433655 
	C755.823364,550.413330 761.230835,553.156311 767.524902,552.913940 
	C788.514221,552.105835 795.036011,531.660950 792.020447,515.120667 
M623.978394,489.229187 
	C621.313721,478.389771 615.378357,471.125977 603.357361,471.005310 
	C589.674133,470.867920 575.988586,470.973572 562.166443,470.973572 
	C562.166443,482.068207 562.166443,493.535461 562.022827,505.929871 
	C562.022827,520.833313 562.022827,535.736755 562.022827,550.745728 
	C567.887451,550.745728 573.274231,550.745728 579.096497,550.745728 
	C579.096497,540.772644 579.096497,531.055725 579.096497,521.003235 
	C585.812866,521.003235 592.118408,521.342407 598.373901,520.927246 
	C608.913391,520.227844 618.443970,516.883118 622.257385,505.967407 
	C623.971313,501.061249 623.379028,495.349487 623.978394,489.229187 
M208.670792,604.818237 
	C211.568954,600.920715 214.336853,596.917786 217.388321,593.144226 
	C229.066360,578.702637 240.960541,564.434082 252.522217,549.900696 
	C259.073395,541.665649 258.843140,536.712402 252.271698,527.723450 
	C249.321640,523.688049 246.129898,519.829346 242.788239,515.263733 
	C237.206039,508.470673 231.623840,501.677612 225.781525,494.253265 
	C220.827240,487.977905 215.983414,481.610870 210.879822,475.459381 
	C207.478317,471.359528 204.101257,467.076385 199.993042,463.770142 
	C195.595642,460.231110 190.491684,461.030182 185.582123,463.795837 
	C181.299957,466.208099 180.196106,469.892761 179.962128,474.412567 
	C179.645416,480.530670 183.722000,484.290039 187.016586,488.452881 
	C195.915161,499.696350 204.923172,510.853241 214.170929,522.668884 
	C217.729202,526.937622 221.261185,531.228699 224.856949,535.465576 
	C226.625641,537.549622 226.536148,539.491943 224.833755,541.550903 
	C221.715591,545.322327 218.636261,549.126282 215.569199,552.939514 
	C204.617981,566.555176 193.637558,580.147644 182.758301,593.820618 
	C179.166397,598.334900 178.900208,606.563293 181.937866,610.373901 
	C185.895035,615.337952 193.055374,617.822632 197.995316,614.770935 
	C201.856491,612.385620 204.729431,608.400574 208.670792,604.818237 
M337.103149,470.023193 
	C332.042358,469.682129 326.974335,468.972260 321.922211,469.071899 
	C308.852081,469.329620 299.332703,475.691193 293.014893,486.971039 
	C287.600311,496.638306 287.144836,507.044067 287.892303,517.864502 
	C289.032440,534.370300 299.254028,548.114258 315.044403,551.850098 
	C330.779724,555.572937 345.529388,551.239502 353.797913,537.558472 
	C355.994476,533.924072 357.189117,529.684082 358.801422,525.823608 
	C353.626617,524.272217 349.620544,523.509705 346.016327,521.866028 
	C342.485962,520.256104 341.509735,521.359863 340.652222,524.658691 
	C339.135986,530.491516 335.397003,534.840454 329.764221,536.920593 
	C320.083862,540.495605 310.384094,535.351257 307.076965,524.829590 
	C304.343384,516.132629 304.037689,507.143066 306.331238,498.298096 
	C310.143677,483.595642 324.642517,480.491638 333.687378,486.166748 
	C337.319824,488.445892 339.536499,492.981445 342.755341,496.928772 
	C347.338776,495.674194 352.774750,494.186249 358.207214,492.699280 
	C355.450623,480.817932 348.394135,473.975098 337.103149,470.023193 
M472.999817,494.745911 
	C472.596832,495.250885 471.948456,496.248322 471.827240,496.187897 
	C469.532593,495.044281 467.386414,493.574890 465.040009,492.567780 
	C454.591949,488.083374 440.916901,492.683960 435.975983,503.074066 
	C429.758606,516.148376 430.098969,529.027466 436.989502,541.700745 
	C441.309998,549.647156 451.076813,554.185974 459.974823,551.917419 
	C464.884216,550.665649 469.508057,548.293823 474.247986,546.431946 
	C474.247986,547.325134 474.247986,549.078674 474.247986,550.715515 
	C479.629242,550.715515 484.706238,550.715515 490.000000,550.715515 
	C490.000000,537.136963 490.000000,523.841919 490.000000,510.546814 
	C490.000000,497.122955 490.000000,483.699127 490.000000,470.253052 
	C484.083862,470.253052 478.682373,470.253052 473.000000,470.253052 
	C473.000000,478.296326 473.000000,486.089935 472.999817,494.745911 
M420.041077,502.445831 
	C411.250763,489.130341 389.897980,487.436523 377.431580,496.220398 
	C365.933777,504.321716 363.095428,519.085876 366.599243,532.225830 
	C370.939575,548.502991 389.439514,555.885437 405.151367,551.448364 
	C426.854431,545.319275 431.851898,518.564880 420.041077,502.445831 
M530.079041,538.993530 
	C521.584412,542.548218 514.032837,536.961487 514.340759,526.792175 
	C526.863403,526.792175 539.407837,526.792175 552.464355,526.792175 
	C551.937378,521.675293 551.731384,517.078552 550.946167,512.583008 
	C549.233154,502.776550 543.859924,495.219269 534.332947,492.340179 
	C524.398743,489.338043 514.230530,489.770325 506.038483,497.536011 
	C498.094727,505.066284 496.386993,514.852356 496.996185,525.293823 
	C497.618103,535.953186 502.568726,548.755737 516.896729,551.499939 
	C525.308838,553.111145 533.727356,554.055847 541.066162,548.857178 
	C545.923035,545.416626 550.996765,541.433655 550.963318,534.282471 
	C548.734070,534.023071 546.921387,533.961792 545.178406,533.581055 
	C540.163574,532.485413 534.904602,530.247559 532.192200,537.274414 
	C531.972778,537.842957 531.292114,538.233398 530.079041,538.993530 
M633.000061,527.500000 
	C633.000061,535.260376 633.000061,543.020691 633.000061,550.665161 
	C639.030273,550.665161 644.429565,550.665161 649.999939,550.665161 
	C649.999939,541.342651 649.809143,532.354675 650.089478,523.381470 
	C650.209412,519.540771 651.015930,515.649475 652.041077,511.927399 
	C653.301453,507.351166 657.168396,505.105408 661.602661,506.069580 
	C663.570984,506.497620 665.417419,507.485596 667.458130,508.273041 
	C668.475159,505.013885 669.225281,502.205780 670.225525,499.489838 
	C672.203064,494.120544 670.410950,491.690460 664.522705,490.940948 
	C658.012634,490.112305 653.313904,492.865723 648.900513,498.646301 
	C648.900513,495.760223 648.900513,494.031311 648.900513,492.303223 
	C643.446289,492.303223 638.370544,492.303223 633.000244,492.303223 
	C633.000244,503.896912 633.000244,515.198486 633.000061,527.500000 
z"/>
<path fill="#FFFFFF" opacity="1.000000" stroke="none" 
	d="
M337.492188,470.190247 
	C348.394135,473.975098 355.450623,480.817932 358.207214,492.699280 
	C352.774750,494.186249 347.338776,495.674194 342.755341,496.928772 
	C339.536499,492.981445 337.319824,488.445892 333.687378,486.166748 
	C324.642517,480.491638 310.143677,483.595642 306.331238,498.298096 
	C304.037689,507.143066 304.343384,516.132629 307.076965,524.829590 
	C310.384094,535.351257 320.083862,540.495605 329.764221,536.920593 
	C335.397003,534.840454 339.135986,530.491516 340.652222,524.658691 
	C341.509735,521.359863 342.485962,520.256104 346.016327,521.866028 
	C349.620544,523.509705 353.626617,524.272217 358.801422,525.823608 
	C357.189117,529.684082 355.994476,533.924072 353.797913,537.558472 
	C345.529388,551.239502 330.779724,555.572937 315.044403,551.850098 
	C299.254028,548.114258 289.032440,534.370300 287.892303,517.864502 
	C287.144836,507.044067 287.600311,496.638306 293.014893,486.971039 
	C299.332703,475.691193 308.852081,469.329620 321.922211,469.071899 
	C326.974335,468.972260 332.042358,469.682129 337.492188,470.190247 
z"/>
<path fill="#FFFFFF" opacity="1.000000" stroke="none" 
	d="
M472.999908,494.314728 
	C473.000000,486.089935 473.000000,478.296326 473.000000,470.253052 
	C478.682373,470.253052 484.083862,470.253052 490.000000,470.253052 
	C490.000000,483.699127 490.000000,497.122955 490.000000,510.546814 
	C490.000000,523.841919 490.000000,537.136963 490.000000,550.715515 
	C484.706238,550.715515 479.629242,550.715515 474.247986,550.715515 
	C474.247986,549.078674 474.247986,547.325134 474.247986,546.431946 
	C469.508057,548.293823 464.884216,550.665649 459.974823,551.917419 
	C451.076813,554.185974 441.309998,549.647156 436.989502,541.700745 
	C430.098969,529.027466 429.758606,516.148376 435.975983,503.074066 
	C440.916901,492.683960 454.591949,488.083374 465.040009,492.567780 
	C467.386414,493.574890 469.532593,495.044281 471.827240,496.187897 
	C471.948456,496.248322 472.596832,495.250885 472.999908,494.314728 
M467.956818,506.432709 
	C462.962189,501.878174 455.677460,502.768066 451.957153,508.304108 
	C446.655060,516.194092 447.625702,524.721802 450.525726,532.788330 
	C452.885620,539.352356 462.330078,541.581116 466.912720,537.632202 
	C474.758179,530.871643 475.595154,514.587524 467.956818,506.432709 
z"/>
<path fill="#FFFFFF" opacity="1.000000" stroke="none" 
	d="
M420.283844,502.729248 
	C431.851898,518.564880 426.854431,545.319275 405.151367,551.448364 
	C389.439514,555.885437 370.939575,548.502991 366.599243,532.225830 
	C363.095428,519.085876 365.933777,504.321716 377.431580,496.220398 
	C389.897980,487.436523 411.250763,489.130341 420.283844,502.729248 
M382.000000,522.404053 
	C382.399109,524.788513 382.451996,527.299561 383.267822,529.531738 
	C385.090210,534.518127 388.469696,538.165588 393.969879,538.951172 
	C399.438202,539.732239 403.502533,537.432312 406.721893,532.888245 
	C411.040131,526.793152 410.307404,515.486145 406.501282,510.019714 
	C402.068420,503.653046 393.199646,503.273163 388.233063,507.179321 
	C383.469727,510.925598 382.404449,516.012817 382.000000,522.404053 
z"/>
<path fill="#FFFFFF" opacity="1.000000" stroke="none" 
	d="
M530.452393,538.850098 
	C531.292114,538.233398 531.972778,537.842957 532.192200,537.274414 
	C534.904602,530.247559 540.163574,532.485413 545.178406,533.581055 
	C546.921387,533.961792 548.734070,534.023071 550.963318,534.282471 
	C550.996765,541.433655 545.923035,545.416626 541.066162,548.857178 
	C533.727356,554.055847 525.308838,553.111145 516.896729,551.499939 
	C502.568726,548.755737 497.618103,535.953186 496.996185,525.293823 
	C496.386993,514.852356 498.094727,505.066284 506.038483,497.536011 
	C514.230530,489.770325 524.398743,489.338043 534.332947,492.340179 
	C543.859924,495.219269 549.233154,502.776550 550.946167,512.583008 
	C551.731384,517.078552 551.937378,521.675293 552.464355,526.792175 
	C539.407837,526.792175 526.863403,526.792175 514.340759,526.792175 
	C514.032837,536.961487 521.584412,542.548218 530.452393,538.850098 
M527.444214,516.000000 
	C530.236450,516.000000 533.028687,516.000000 535.868530,516.000000 
	C534.596863,506.808075 530.600464,503.185608 522.992065,504.000885 
	C517.733459,504.564362 513.814331,510.038361 514.575867,516.000000 
	C518.519775,516.000000 522.491821,516.000000 527.444214,516.000000 
z"/>
<path fill="#FFB400" opacity="1.000000" stroke="none" 
	d="
M226.041656,494.884552 
	C231.623840,501.677612 237.206039,508.470673 242.763031,515.901978 
	C242.156891,517.531128 241.439880,518.467102 241.015060,519.520996 
	C232.408707,540.871155 223.735992,562.195618 215.313126,583.618164 
	C212.547165,590.653076 210.446411,597.949524 208.041473,605.126343 
	C204.729431,608.400574 201.856491,612.385620 197.995316,614.770935 
	C193.055374,617.822632 185.895035,615.337952 181.937866,610.373901 
	C178.900208,606.563293 179.166397,598.334900 182.758301,593.820618 
	C193.637558,580.147644 204.617981,566.555176 215.569199,552.939514 
	C218.636261,549.126282 221.715591,545.322327 224.833755,541.550903 
	C226.536148,539.491943 226.625641,537.549622 224.856949,535.465576 
	C221.261185,531.228699 217.729202,526.937622 214.323807,522.159607 
	C218.331680,512.728394 222.186661,503.806488 226.041656,494.884552 
z"/>
<path fill="#FFAE00" opacity="1.000000" stroke="none" 
	d="
M99.955780,473.887604 
	C103.692627,468.412659 107.241341,462.960297 114.659615,461.609528 
	C121.308388,460.398865 128.355438,465.754974 129.128052,472.361877 
	C130.180405,481.360840 123.743546,486.270447 119.239456,492.164948 
	C110.640930,503.417969 101.702621,514.412354 92.847572,525.467773 
	C89.371536,529.807617 85.740334,534.023254 82.125481,538.360535 
	C86.063354,543.388062 89.949776,548.349854 93.648148,553.793762 
	C90.944832,560.132874 88.540329,566.041077 85.867020,571.825012 
	C84.553627,574.666687 82.742035,577.278137 81.155907,579.993774 
	C76.161537,573.886658 71.167175,567.779480 66.330322,561.155762 
	C66.750481,560.219543 67.084381,559.828430 67.265511,559.376160 
	C76.172798,537.136963 85.158272,514.928345 93.902779,492.625183 
	C96.294189,486.525879 97.958038,480.141266 99.955780,473.887604 
z"/>
<path fill="#FF9F00" opacity="1.000000" stroke="none" 
	d="
M123.882973,566.043213 
	C110.678101,552.815491 109.594276,527.951477 122.109711,513.122314 
	C129.729248,504.094147 138.532822,499.064728 150.235275,497.854156 
	C159.304092,496.915985 167.482895,498.586761 175.625671,503.333313 
	C174.106384,505.888580 172.287354,507.940033 170.490356,510.010590 
	C167.653442,513.279541 164.831360,516.561340 161.615845,519.778748 
	C150.867783,517.175354 142.365372,520.117493 137.278183,528.440674 
	C134.103790,533.634399 132.885162,545.091980 139.750671,551.945679 
	C138.007706,553.095947 136.529831,554.094666 135.236420,555.292603 
	C131.412827,558.833923 127.662163,562.453979 123.882973,566.043213 
z"/>
<path fill="#FFB400" opacity="1.000000" stroke="none" 
	d="
M623.833252,490.003296 
	C623.379028,495.349487 623.971313,501.061249 622.257385,505.967407 
	C618.443970,516.883118 608.913391,520.227844 598.373901,520.927246 
	C592.118408,521.342407 585.812866,521.003235 579.096497,521.003235 
	C579.096497,531.055725 579.096497,540.772644 579.096497,550.745728 
	C573.274231,550.745728 567.887451,550.745728 562.022827,550.745728 
	C562.022827,535.736755 562.022827,520.833313 562.485657,505.455811 
	C568.243469,503.988525 573.538452,502.995270 578.905273,502.442566 
	C578.977173,504.145782 578.977173,505.408447 578.977173,506.995941 
	C582.911011,506.995941 586.385864,507.242157 589.815247,506.951813 
	C602.324463,505.892792 604.266052,504.474823 607.186035,494.814026 
	C612.889038,493.011658 618.361145,491.507477 623.833252,490.003296 
z"/>
<path fill="#FFCB00" opacity="1.000000" stroke="none" 
	d="
M792.114990,515.955444 
	C795.036011,531.660950 788.514221,552.105835 767.524902,552.913940 
	C761.230835,553.156311 755.823364,550.413330 751.234375,544.433655 
	C751.234375,554.751770 751.234375,564.083496 751.234375,573.707031 
	C745.685181,573.707031 740.623230,573.707031 735.023987,573.707031 
	C735.023987,559.115784 735.023987,544.524109 735.499878,529.465515 
	C741.000427,527.616638 746.025146,526.234680 751.404114,525.040894 
	C751.837158,525.881958 751.931213,526.533386 751.992188,527.187805 
	C752.542358,533.093384 757.416321,538.594482 762.401733,539.007080 
	C768.324585,539.497131 772.812622,538.972351 774.981384,529.181885 
	C775.716187,525.864807 775.789612,522.401184 776.560791,518.992676 
	C782.009277,517.972412 787.062134,516.963928 792.114990,515.955444 
z"/>
<path fill="#FFBD00" opacity="1.000000" stroke="none" 
	d="
M672.165039,533.001404 
	C669.958313,521.829834 670.097046,511.134857 676.908142,501.170776 
	C683.320557,491.789917 694.286560,489.528320 704.369446,491.336334 
	C717.541565,493.698364 722.777100,502.516327 724.894104,511.973083 
	C725.948120,516.681091 725.905762,521.634583 726.408691,527.003418 
	C714.365173,527.003418 703.114502,526.934265 691.867126,527.097107 
	C690.564209,527.115906 689.279968,528.422363 687.500305,529.566528 
	C682.064026,531.001282 677.114563,532.001343 672.165039,533.001404 
M690.971741,507.539581 
	C689.783752,510.118378 688.595703,512.697144 687.159363,515.814941 
	C695.601868,515.814941 702.681702,515.814941 709.967896,515.814941 
	C709.375610,510.683075 707.784485,506.159393 702.783081,504.463501 
	C698.861511,503.133728 694.638062,503.324707 690.971741,507.539581 
z"/>
<path fill="#FF9F00" opacity="1.000000" stroke="none" 
	d="
M225.911591,494.568909 
	C222.186661,503.806488 218.331680,512.728394 214.182220,521.847412 
	C204.923172,510.853241 195.915161,499.696350 187.016586,488.452881 
	C183.722000,484.290039 179.645416,480.530670 179.962128,474.412567 
	C180.196106,469.892761 181.299957,466.208099 185.582123,463.795837 
	C190.491684,461.030182 195.595642,460.231110 199.993042,463.770142 
	C204.101257,467.076385 207.478317,471.359528 210.879822,475.459381 
	C215.983414,481.610870 220.827240,487.977905 225.911591,494.568909 
z"/>
<path fill="#FFBD00" opacity="1.000000" stroke="none" 
	d="
M633.000122,527.000000 
	C633.000244,515.198486 633.000244,503.896912 633.000244,492.303223 
	C638.370544,492.303223 643.446289,492.303223 648.900513,492.303223 
	C648.900513,494.031311 648.900513,495.760223 648.900513,498.646301 
	C653.313904,492.865723 658.012634,490.112305 664.522705,490.940948 
	C670.410950,491.690460 672.203064,494.120544 670.225525,499.489838 
	C669.225281,502.205780 668.475159,505.013885 667.458130,508.273041 
	C665.417419,507.485596 663.570984,506.497620 661.602661,506.069580 
	C657.168396,505.105408 653.301453,507.351166 652.041077,511.927399 
	C651.015930,515.649475 650.209412,519.540771 650.089478,523.381470 
	C649.809143,532.354675 649.999939,541.342651 649.999939,550.665161 
	C644.429565,550.665161 639.030273,550.665161 633.000061,550.665161 
	C633.000061,543.020691 633.000061,535.260376 633.000122,527.000000 
z"/>
<path fill="#FFAE00" opacity="1.000000" stroke="none" 
	d="
M578.833435,502.002014 
	C573.538452,502.995270 568.243469,503.988525 562.557495,504.992249 
	C562.166443,493.535461 562.166443,482.068207 562.166443,470.973572 
	C575.988586,470.973572 589.674133,470.867920 603.357361,471.005310 
	C615.378357,471.125977 621.313721,478.389771 623.905823,489.616241 
	C618.361145,491.507477 612.889038,493.011658 606.851440,494.632629 
	C605.858337,490.124054 603.967224,486.333252 599.040955,485.640259 
	C592.504272,484.720734 585.879883,484.425171 578.833435,483.822174 
	C578.833435,490.428528 578.833435,496.215271 578.833435,502.002014 
z"/>
<path fill="#FFC300" opacity="1.000000" stroke="none" 
	d="
M208.356125,604.972290 
	C210.446411,597.949524 212.547165,590.653076 215.313126,583.618164 
	C223.735992,562.195618 232.408707,540.871155 241.015060,519.520996 
	C241.439880,518.467102 242.156891,517.531128 242.892822,516.215332 
	C246.129898,519.829346 249.321640,523.688049 252.271698,527.723450 
	C258.843140,536.712402 259.073395,541.665649 252.522217,549.900696 
	C240.960541,564.434082 229.066360,578.702637 217.388321,593.144226 
	C214.336853,596.917786 211.568954,600.920715 208.356125,604.972290 
z"/>
<path fill="#FF9F00" opacity="1.000000" stroke="none" 
	d="
M99.639023,474.025391 
	C97.958038,480.141266 96.294189,486.525879 93.902779,492.625183 
	C85.158272,514.928345 76.172798,537.136963 67.265511,559.376160 
	C67.084381,559.828430 66.750481,560.219543 66.193085,560.842285 
	C63.552608,558.150818 61.218285,555.246826 58.858997,552.363281 
	C51.724522,543.643494 47.835907,538.357666 57.212757,526.505432 
	C71.105988,508.944641 85.272247,491.599915 99.639023,474.025391 
z"/>
<path fill="#FFBD00" opacity="1.000000" stroke="none" 
	d="
M751.049805,524.852661 
	C746.025146,526.234680 741.000427,527.616638 735.570435,529.001953 
	C735.108276,527.017395 735.005371,525.029724 735.002075,523.041870 
	C734.985413,512.927856 734.994446,502.813904 734.994446,492.351074 
	C739.887390,492.351074 744.601318,492.351074 749.786987,492.351074 
	C749.896606,494.563873 750.014832,496.950989 750.082825,498.324097 
	C753.848816,496.314972 757.727234,493.271332 762.091431,492.191803 
	C766.451782,491.113220 771.518799,491.122131 775.883484,492.217896 
	C783.724976,494.186462 791.947754,504.705353 792.067749,515.538086 
	C787.062134,516.963928 782.009277,517.972412 776.485352,518.592590 
	C775.332947,515.741211 774.880676,513.184692 773.922668,510.834290 
	C771.900940,505.874176 767.851990,503.695496 762.687195,504.065643 
	C757.761902,504.418579 754.236755,507.184570 753.068054,512.035339 
	C752.058228,516.226562 751.697449,520.574158 751.049805,524.852661 
z"/>
<path fill="#FFCB00" opacity="1.000000" stroke="none" 
	d="
M194.834473,531.005493 
	C197.632904,538.498840 196.057404,545.900452 193.462952,552.890442 
	C189.720428,562.973572 182.993469,571.246216 173.223862,575.732849 
	C165.375626,579.337097 156.754913,581.795532 147.425659,578.697388 
	C152.318222,572.682983 157.692780,567.323181 162.700836,561.640442 
	C164.268188,559.861938 164.847626,557.212769 166.017181,554.664795 
	C167.397842,553.564575 168.640594,552.761719 170.240219,551.940308 
	C176.630096,546.548889 182.636948,541.146118 188.711258,535.820374 
	C190.660812,534.111023 192.788361,532.604675 194.834473,531.005493 
z"/>
<path fill="#FFC300" opacity="1.000000" stroke="none" 
	d="
M81.172188,580.332764 
	C82.742035,577.278137 84.553627,574.666687 85.867020,571.825012 
	C88.540329,566.041077 90.944832,560.132874 93.783615,554.114014 
	C99.761673,560.846252 105.416222,567.740417 111.093086,575.343384 
	C107.371284,585.051208 103.627159,594.050293 99.883034,603.049377 
	C94.927216,597.069275 89.977180,591.084412 85.011536,585.112488 
	C83.762886,583.610840 82.464180,582.150818 81.172188,580.332764 
z"/>
<path fill="#FFC300" opacity="1.000000" stroke="none" 
	d="
M672.205444,533.364624 
	C677.114563,532.001343 682.064026,531.001282 687.424377,530.002075 
	C690.149353,533.238159 690.272034,537.914001 695.462891,539.231323 
	C702.422119,540.997314 705.590637,539.775513 709.521851,531.955994 
	C714.501831,532.752136 719.601074,533.567383 724.705688,534.383423 
	C724.877197,542.667725 716.158325,550.504761 704.053101,552.960754 
	C690.824158,555.644775 677.167603,547.387024 672.205444,533.364624 
z"/>
<path fill="#FFCB00" opacity="1.000000" stroke="none" 
	d="
M100.023964,603.367432 
	C103.627159,594.050293 107.371284,585.051208 111.254433,575.620483 
	C111.393456,575.188843 111.810654,575.379395 111.965973,575.834717 
	C112.353355,576.523071 112.585426,576.756042 112.817497,576.989075 
	C117.294838,582.576416 121.772758,588.163330 126.249382,593.751282 
	C131.203232,599.934937 129.994919,610.204529 122.435242,614.407227 
	C118.128220,616.801514 110.330299,615.600708 106.755791,612.100525 
	C104.232056,609.629211 102.339340,606.513550 100.023964,603.367432 
z"/>
<path fill="#FFBD00" opacity="1.000000" stroke="none" 
	d="
M165.879257,554.962158 
	C164.847626,557.212769 164.268188,559.861938 162.700836,561.640442 
	C157.692780,567.323181 152.318222,572.682983 147.045258,578.500854 
	C137.887451,577.601074 130.339325,573.422241 124.024864,566.352844 
	C127.662163,562.453979 131.412827,558.833923 135.236420,555.292603 
	C136.529831,554.094666 138.007706,553.095947 140.070999,552.078369 
	C147.908356,559.620300 155.744385,560.496704 165.879257,554.962158 
z"/>
<path fill="#FFBD00" opacity="1.000000" stroke="none" 
	d="
M194.909363,530.608459 
	C192.788361,532.604675 190.660812,534.111023 188.711258,535.820374 
	C182.636948,541.146118 176.630096,546.548889 170.295578,551.573975 
	C175.466248,543.889526 175.409485,536.103882 172.188293,527.898071 
	C177.347260,522.789490 182.195175,517.818909 187.043091,512.848328 
	C189.690155,518.636047 192.337219,524.423706 194.909363,530.608459 
z"/>
<path fill="#FFAE00" opacity="1.000000" stroke="none" 
	d="
M186.905823,512.548950 
	C182.195175,517.818909 177.347260,522.789490 171.870560,527.762756 
	C168.162186,525.122864 165.082581,522.480225 162.002991,519.837646 
	C164.831360,516.561340 167.653442,513.279541 170.490356,510.010590 
	C172.287354,507.940033 174.106384,505.888580 175.957565,503.495239 
	C179.589264,506.191101 183.178925,509.220306 186.905823,512.548950 
z"/>
<path fill="#FFC300" opacity="1.000000" stroke="none" 
	d="
M112.838501,576.712891 
	C112.585426,576.756042 112.353355,576.523071 112.042366,576.050903 
	C112.262131,576.020081 112.560806,576.228394 112.838501,576.712891 
z"/>
<path fill="#000000" opacity="1.000000" stroke="none" 
	d="
M468.222137,506.712769 
	C475.595154,514.587524 474.758179,530.871643 466.912720,537.632202 
	C462.330078,541.581116 452.885620,539.352356 450.525726,532.788330 
	C447.625702,524.721802 446.655060,516.194092 451.957153,508.304108 
	C455.677460,502.768066 462.962189,501.878174 468.222137,506.712769 
z"/>
<path fill="#000000" opacity="1.000000" stroke="none" 
	d="
M382.000000,521.959473 
	C382.404449,516.012817 383.469727,510.925598 388.233063,507.179321 
	C393.199646,503.273163 402.068420,503.653046 406.501282,510.019714 
	C410.307404,515.486145 411.040131,526.793152 406.721893,532.888245 
	C403.502533,537.432312 399.438202,539.732239 393.969879,538.951172 
	C388.469696,538.165588 385.090210,534.518127 383.267822,529.531738 
	C382.451996,527.299561 382.399109,524.788513 382.000000,521.959473 
z"/>
<path fill="#000000" opacity="1.000000" stroke="none" 
	d="
M526.954041,516.000000 
	C522.491821,516.000000 518.519775,516.000000 514.575867,516.000000 
	C513.814331,510.038361 517.733459,504.564362 522.992065,504.000885 
	C530.600464,503.185608 534.596863,506.808075 535.868530,516.000000 
	C533.028687,516.000000 530.236450,516.000000 526.954041,516.000000 
z"/>
<path fill="#000000" opacity="1.000000" stroke="none" 
	d="
M161.615845,519.778748 
	C165.082581,522.480225 168.162186,525.122864 171.559525,527.900757 
	C175.409485,536.103882 175.466248,543.889526 169.938705,551.592468 
	C168.640594,552.761719 167.397842,553.564575 166.017181,554.664795 
	C155.744385,560.496704 147.908356,559.620300 140.420380,552.017822 
	C132.885162,545.091980 134.103790,533.634399 137.278183,528.440674 
	C142.365372,520.117493 150.867783,517.175354 161.615845,519.778748 
z"/>
<path fill="#000000" opacity="1.000000" stroke="none" 
	d="
M578.905273,502.442566 
	C578.833435,496.215271 578.833435,490.428528 578.833435,483.822174 
	C585.879883,484.425171 592.504272,484.720734 599.040955,485.640259 
	C603.967224,486.333252 605.858337,490.124054 606.620544,494.930786 
	C604.266052,504.474823 602.324463,505.892792 589.815247,506.951813 
	C586.385864,507.242157 582.911011,506.995941 578.977173,506.995941 
	C578.977173,505.408447 578.977173,504.145782 578.905273,502.442566 
z"/>
<path fill="#000000" opacity="1.000000" stroke="none" 
	d="
M751.404053,525.040894 
	C751.697449,520.574158 752.058228,516.226562 753.068054,512.035339 
	C754.236755,507.184570 757.761902,504.418579 762.687195,504.065643 
	C767.851990,503.695496 771.900940,505.874176 773.922668,510.834290 
	C774.880676,513.184692 775.332947,515.741211 776.089783,518.604431 
	C775.789612,522.401184 775.716187,525.864807 774.981384,529.181885 
	C772.812622,538.972351 768.324585,539.497131 762.401733,539.007080 
	C757.416321,538.594482 752.542358,533.093384 751.992188,527.187805 
	C751.931213,526.533386 751.837158,525.881958 751.404053,525.040894 
z"/>
<path fill="#000000" opacity="1.000000" stroke="none" 
	d="
M691.245605,507.261902 
	C694.638062,503.324707 698.861511,503.133728 702.783081,504.463501 
	C707.784485,506.159393 709.375610,510.683075 709.967896,515.814941 
	C702.681702,515.814941 695.601868,515.814941 687.159363,515.814941 
	C688.595703,512.697144 689.783752,510.118378 691.245605,507.261902 
z"/>
</svg>