<svg version="1.1" id="Layer_1" xmlns="http://www.w3.org/2000/svg" xmlns:xlink="http://www.w3.org/1999/xlink" x="0px" y="0px"
	 width="100%" viewBox="0 0 1024 1024" enable-background="new 0 0 1024 1024" xml:space="preserve">
<path fill="#000000" opacity="1.000000" stroke="none" 
	d="
M672.000000,1025.000000 
	C448.000000,1025.000000 224.500000,1025.000000 1.000000,1025.000000 
	C1.000000,683.666687 1.000000,342.333344 1.000000,1.000000 
	C342.333344,1.000000 683.666687,1.000000 1025.000000,1.000000 
	C1025.000000,342.333344 1025.000000,683.666687 1025.000000,1025.000000 
	C907.500000,1025.000000 790.000000,1025.000000 672.000000,1025.000000 
M184.974731,392.979187 
	C184.974731,392.979187 184.938751,392.906342 184.311996,393.177917 
	C175.320984,404.194916 166.261856,415.157196 157.355011,426.241821 
	C144.267395,442.529388 131.151337,458.797546 118.318787,475.285156 
	C111.448120,484.112793 105.427078,493.240967 103.756874,505.001404 
	C101.015129,524.307129 107.741722,539.686584 120.994087,553.750488 
	C129.315170,564.204651 137.636246,574.658752 146.223129,585.731812 
	C147.155655,586.853943 148.084396,587.979309 149.021393,589.097717 
	C154.332321,595.436829 159.645218,601.774231 165.012192,608.812378 
	C170.825714,616.193909 176.563751,623.636597 182.476715,630.937622 
	C187.168304,636.730469 192.074097,642.349792 196.994675,648.749451 
	C203.713745,657.163696 210.432831,665.577881 217.179199,674.670288 
	C225.171494,684.444885 233.163788,694.219543 241.185547,704.671509 
	C249.416840,714.794067 257.648132,724.916687 266.158356,735.667175 
	C268.436981,738.401123 270.736572,741.117920 272.990234,743.872375 
	C279.320282,751.608948 285.631409,759.361023 292.218292,767.737915 
	C294.142975,770.136536 296.061340,772.540283 297.993500,774.932861 
	C305.309998,783.992615 312.630920,793.048828 320.205383,802.721313 
	C323.230927,805.497742 325.945435,808.751526 329.339233,810.962708 
	C340.308807,818.109680 351.987335,821.960022 365.580383,820.166687 
	C384.713043,817.642456 398.536896,807.739319 406.385712,790.830566 
	C414.582245,773.172729 412.931244,755.274658 401.497620,739.141235 
	C394.558990,729.350464 386.775818,720.152161 379.247650,710.787659 
	C374.658539,705.079102 369.833130,699.560608 364.997375,693.256714 
	C360.840271,687.866028 356.797577,682.381958 352.496277,677.108887 
	C347.463348,670.939026 342.205109,664.953003 336.988556,658.187805 
	C328.340027,647.419678 319.691498,636.651489 310.780151,625.256958 
	C309.472534,623.620544 308.166199,621.983093 306.857025,620.347900 
	C300.611755,612.547302 294.365692,604.747253 287.842377,596.325195 
	C286.558960,594.859314 285.223511,593.435425 284.000732,591.920593 
	C277.022614,583.276001 270.071320,574.609680 262.833923,565.317749 
	C255.926437,556.861816 249.018936,548.405945 241.831772,539.312134 
	C234.876923,530.490479 227.922058,521.668823 220.959213,512.837036 
	C223.677490,509.596863 226.378677,506.505676 228.939285,503.302124 
	C239.037949,490.667480 249.131821,478.028625 259.146149,465.327179 
	C263.873047,459.331909 268.416077,453.191650 273.669312,446.837982 
	C278.669159,440.812531 283.752777,434.854279 288.652130,428.748230 
	C300.353485,414.165009 312.000488,399.537842 323.596771,384.871002 
	C326.896820,380.697205 329.947327,376.326080 333.732544,371.780151 
	C342.361145,361.132294 351.042999,350.527039 359.605896,339.826630 
	C372.545868,323.656464 385.114685,307.179901 398.365326,291.270050 
	C416.532776,269.456543 415.479797,237.153946 392.770203,217.251282 
	C386.032288,212.021515 378.794159,207.892090 369.668121,206.228653 
	C363.526764,206.151932 357.295349,205.368607 351.261688,206.137238 
	C336.027527,208.077896 324.577484,216.413666 315.325134,229.165665 
	C308.028229,238.138412 300.665222,247.058395 293.450073,256.096405 
	C282.897675,269.314728 272.451324,282.617676 261.462524,296.064880 
	C261.364227,296.369934 261.265930,296.674988 261.018799,297.423096 
	C261.018799,297.423096 260.956696,297.886353 260.336487,298.155396 
	C259.186218,299.756042 258.035950,301.356720 256.426056,303.088776 
	C256.131989,303.273712 255.975494,303.539612 255.324753,304.165558 
	C246.175064,315.648895 237.030380,327.136230 227.874512,338.614624 
	C214.239380,355.708557 200.596375,372.796204 186.349411,390.145905 
	C185.866974,391.078156 185.384537,392.010437 184.974731,392.979187 
M808.780640,351.338898 
	C801.225342,342.213226 793.670044,333.087585 785.835144,323.323486 
	C776.924988,312.200562 768.014893,301.077637 758.828247,289.322540 
	C753.568176,282.735321 748.346130,276.117218 743.036011,269.570526 
	C738.759033,264.297638 734.375610,259.111023 729.774231,253.261780 
	C726.476624,249.025665 723.259644,244.723663 719.862244,240.569168 
	C715.013672,234.640228 710.032959,228.819336 704.837769,222.331894 
	C702.377319,220.165024 700.049683,217.820663 697.433228,215.862244 
	C686.447205,207.639145 674.281921,203.000854 660.481323,206.135895 
	C652.830322,207.873932 644.529236,209.546921 638.186951,213.757980 
	C612.974487,230.498062 607.551941,262.941376 624.757996,287.242645 
	C630.302612,295.073761 636.472656,302.469147 642.490295,309.956360 
	C648.199524,317.059723 654.083740,324.022461 660.175598,331.681763 
	C669.082336,342.803864 677.989014,353.925964 687.178467,365.676514 
	C696.438721,377.154297 705.698975,388.632050 715.228210,400.732849 
	C718.523560,404.966431 721.723083,409.279114 725.136597,413.415192 
	C730.331665,419.710022 735.674866,425.882507 741.012085,432.807404 
	C747.975830,441.551270 754.939514,450.295135 762.168762,459.670166 
	C770.066467,469.460266 777.964172,479.250397 786.156860,489.662170 
	C792.511780,497.485352 798.866760,505.308502 805.229980,513.141846 
	C803.730530,514.739319 802.383301,515.991089 801.248840,517.412598 
	C792.400513,528.499207 783.566284,539.597229 774.782227,550.734680 
	C768.441040,558.774719 762.183289,566.880615 755.262024,575.220398 
	C750.528625,581.053406 745.759705,586.858032 741.069092,592.725281 
	C730.982178,605.342346 720.906067,617.968262 710.883057,630.636108 
	C704.520813,638.677185 698.262146,646.800354 691.324341,655.164673 
	C682.587524,665.971008 673.809204,676.744080 665.124939,687.592468 
	C655.022644,700.212341 644.958862,712.863647 634.963501,725.568237 
	C628.958984,733.200317 622.488403,740.417725 618.640198,749.653442 
	C610.790466,768.493103 615.595093,794.211182 632.226990,807.738708 
	C639.300964,814.198059 647.717773,817.906189 657.875610,819.975220 
	C668.861633,822.297791 679.124939,819.807434 689.151123,815.415100 
	C699.338928,810.951904 706.127197,802.675781 712.854126,794.382874 
	C717.140259,789.099060 721.040405,783.502075 725.737488,777.777710 
	C733.368408,768.448608 741.080688,759.184570 748.611694,749.775452 
	C760.485107,734.941040 772.236755,720.009155 784.537415,704.937561 
	C784.636292,704.633118 784.735168,704.328674 785.061768,703.460754 
	C785.704712,702.700134 786.347717,701.939514 787.601562,700.894470 
	C788.100769,699.948364 788.599976,699.002319 789.027405,698.023438 
	C789.027405,698.023438 789.059692,698.095459 789.686890,697.823059 
	C797.437683,688.301392 805.241821,678.822632 812.925903,669.247375 
	C822.953430,656.751831 832.851807,644.152588 842.868652,631.648438 
	C852.799316,619.251831 862.849243,606.950745 872.771851,594.547791 
	C884.213989,580.245483 895.395264,565.730469 907.030029,551.587769 
	C915.336975,541.490234 921.839600,530.638367 922.931946,517.394897 
	C924.110596,503.104797 919.544800,490.400146 910.705688,479.240326 
	C902.904358,469.390656 894.940369,459.669952 886.789246,449.268494 
	C880.232300,441.165222 873.675354,433.061951 866.843140,424.328461 
	C862.233582,418.596375 857.658569,412.836182 853.006409,407.138947 
	C846.404785,399.054260 839.746399,391.015991 833.006653,382.253754 
	C824.944275,372.172699 816.881836,362.091644 808.780640,351.338898 
M629.842773,397.329132 
	C624.421326,392.581543 619.398376,387.249054 613.486206,383.221893 
	C604.345581,376.995605 594.597229,371.661438 584.775696,365.302765 
	C579.900757,363.189087 575.185486,360.512238 570.118591,359.075531 
	C558.502136,355.781708 546.714172,353.093048 534.113342,350.018890 
	C532.617554,350.007782 531.102661,350.147858 529.628845,349.962128 
	C515.021362,348.121582 500.479736,348.406281 485.194275,351.024658 
	C483.783325,351.350037 482.384308,351.744598 480.959595,351.990173 
	C465.033142,354.735474 449.954529,360.231812 435.873077,367.863495 
	C418.582275,377.234528 403.174042,389.158356 390.077423,404.161530 
	C381.428619,414.069427 374.290649,424.781525 367.953888,436.182770 
	C359.456818,451.470917 354.211365,467.851318 351.025360,485.858459 
	C348.419098,501.865143 348.090088,517.912476 350.023529,534.833130 
	C350.683411,538.470154 351.192719,542.142334 352.029999,545.738037 
	C355.205109,559.373901 358.501923,572.979431 365.996643,585.860107 
	C367.012787,587.995911 367.924347,590.189270 369.061768,592.258362 
	C377.241730,607.139526 387.451263,620.457397 400.173798,632.681152 
	C401.941254,634.110718 403.780975,635.460327 405.464539,636.982666 
	C417.762787,648.103271 431.643250,656.701660 447.247620,663.785889 
	C463.905212,670.494568 481.083801,675.136292 499.931885,676.975037 
	C522.299194,677.520020 544.248352,675.989197 565.702209,668.353149 
	C579.688599,663.375000 593.031860,657.314331 605.146179,649.059143 
	C616.464905,641.346008 626.819519,632.328674 635.962280,621.813782 
	C649.450928,606.300720 659.766907,589.142578 667.057739,570.010010 
	C675.788391,547.099182 677.941284,523.300781 676.956909,499.054932 
	C676.928162,498.346497 676.407043,497.658051 676.017456,496.080200 
	C675.011414,489.348022 674.785400,482.378754 672.827148,475.936005 
	C669.387878,464.620422 664.888062,453.627136 660.927795,441.732910 
	C658.577515,437.332581 656.354065,432.858643 653.852112,428.546326 
	C647.320496,417.288635 639.341980,407.131470 629.842773,397.329132 
z"/>
<path fill="#FFB800" opacity="1.000000" stroke="none" 
	d="
M833.112366,382.957855 
	C839.746399,391.015991 846.404785,399.054260 853.006409,407.138947 
	C857.658569,412.836182 862.233582,418.596375 866.627075,424.717896 
	C865.308533,426.463409 863.811829,427.654968 863.166016,429.201782 
	C858.170898,441.165405 853.308899,453.185028 848.464966,465.211182 
	C836.674744,494.483002 824.908081,523.764343 813.149353,553.048828 
	C807.770325,566.445068 802.436401,579.859497 797.074646,593.262756 
	C791.774536,606.511658 786.434265,619.744690 781.166626,633.006470 
	C772.707336,654.303650 764.331909,675.634216 755.849243,696.922058 
	C747.477905,717.930481 738.906860,738.860168 730.667419,759.919861 
	C728.371643,765.787842 726.941101,771.994324 725.113586,778.045471 
	C721.040405,783.502075 717.140259,789.099060 712.854126,794.382874 
	C706.127197,802.675781 699.338928,810.951904 689.151123,815.415100 
	C679.124939,819.807434 668.861633,822.297791 657.544312,819.587097 
	C658.349609,817.407776 659.792847,815.740723 660.575623,813.806396 
	C668.654907,793.842896 676.540894,773.801025 684.654968,753.851807 
	C692.209534,735.278198 700.138611,716.855957 707.600159,698.245667 
	C714.566162,680.871216 721.052612,663.305054 727.908081,645.885498 
	C732.094360,635.248413 736.521667,624.704773 740.944458,614.162720 
	C746.062927,601.962402 751.319092,589.819824 756.415466,577.610474 
	C756.703735,576.919678 756.084961,575.850342 755.888367,574.957153 
	C762.183289,566.880615 768.441040,558.774719 774.782227,550.734680 
	C783.566284,539.597229 792.400513,528.499207 801.248840,517.412598 
	C802.383301,515.991089 803.730530,514.739319 805.229980,513.141846 
	C798.866760,505.308502 792.511780,497.485352 786.352661,489.257568 
	C787.690918,487.095032 789.160217,485.468445 789.927246,483.559631 
	C802.806274,451.507080 815.556763,419.402710 828.517334,387.383331 
	C829.246033,385.583160 831.544495,384.418365 833.112366,382.957855 
z"/>
<path fill="#FFAC00" opacity="1.000000" stroke="none" 
	d="
M196.884796,648.046204 
	C192.074097,642.349792 187.168304,636.730469 182.476715,630.937622 
	C176.563751,623.636597 170.825714,616.193909 165.053192,608.092529 
	C171.479080,591.492371 177.878815,575.618042 184.245377,559.730469 
	C193.582153,536.430786 202.937592,513.138489 212.205078,489.811218 
	C219.755859,470.805145 227.059143,451.699951 234.706436,432.733185 
	C245.277054,406.516022 256.208954,380.444183 266.728455,354.206848 
	C280.040588,321.004303 293.117310,287.707245 306.242310,254.429947 
	C309.584259,245.956635 312.724579,237.403793 315.957520,228.887466 
	C324.577484,216.413666 336.027527,208.077896 351.261688,206.137238 
	C357.295349,205.368607 363.526764,206.151932 369.569641,206.743851 
	C368.448486,208.298645 367.017456,209.159897 366.472351,210.408066 
	C363.820740,216.479767 361.336487,222.627747 358.922150,228.799255 
	C353.723633,242.087708 348.717377,255.452316 343.424530,268.702698 
	C336.415680,286.248962 329.161041,303.696899 322.104950,321.224518 
	C318.390320,330.451782 314.985291,339.804077 311.242340,349.019470 
	C304.819458,364.832977 298.199066,380.566162 291.741852,396.365875 
	C286.726288,408.638214 281.703491,420.910828 276.954041,433.286987 
	C275.244629,437.741394 274.323364,442.498230 273.042419,447.117065 
	C268.416077,453.191650 263.873047,459.331909 259.146149,465.327179 
	C249.131821,478.028625 239.037949,490.667480 228.939285,503.302124 
	C226.378677,506.505676 223.677490,509.596863 220.959213,512.837036 
	C227.922058,521.668823 234.876923,530.490479 241.660782,539.811584 
	C240.666794,541.503601 239.588928,542.593323 239.059784,543.904480 
	C233.039871,558.821106 227.088638,573.765564 221.149918,588.714844 
	C216.311768,600.893738 211.599380,613.123352 206.670029,625.265076 
	C203.561768,632.921143 200.156723,640.456604 196.884796,648.046204 
z"/>
<path fill="#FFC300" opacity="1.000000" stroke="none" 
	d="
M499.004944,676.831848 
	C481.083801,675.136292 463.905212,670.494568 447.103333,663.066162 
	C448.120483,660.250000 448.881531,657.757263 450.504517,656.117615 
	C469.113098,637.317505 487.880157,618.674316 506.506866,599.891907 
	C508.039001,598.346985 508.855103,596.091919 510.389343,594.096252 
	C518.926331,593.131653 527.298889,593.119263 535.179321,591.143799 
	C548.076355,587.910889 559.218506,581.149780 568.891418,571.742371 
	C579.403625,561.518738 586.715088,549.656372 591.100159,535.688354 
	C594.167175,525.918945 593.958313,515.979797 594.503418,505.936859 
	C596.967346,504.338104 599.347473,503.061523 601.184265,501.237823 
	C619.348572,483.203125 637.412109,465.067047 655.540466,446.996155 
	C657.174866,445.366974 659.062500,443.991943 660.832458,442.498901 
	C664.888062,453.627136 669.387878,464.620422 672.827148,475.936005 
	C674.785400,482.378754 675.011414,489.348022 675.721436,496.586731 
	C673.754028,498.425568 671.938293,499.613007 670.433350,501.112305 
	C652.144714,519.332642 633.901428,537.598511 615.646973,555.853149 
	C578.187988,593.312439 540.693481,630.736389 503.363312,668.323669 
	C501.223907,670.477783 500.426788,673.965027 499.004944,676.831848 
z"/>
<path fill="#FFCE00" opacity="1.000000" stroke="none" 
	d="
M499.468414,676.903442 
	C500.426788,673.965027 501.223907,670.477783 503.363312,668.323669 
	C540.693481,630.736389 578.187988,593.312439 615.646973,555.853149 
	C633.901428,537.598511 652.144714,519.332642 670.433350,501.112305 
	C671.938293,499.613007 673.754028,498.425568 675.770386,497.026733 
	C676.407043,497.658051 676.928162,498.346497 676.956909,499.054932 
	C677.941284,523.300781 675.788391,547.099182 667.057739,570.010010 
	C659.766907,589.142578 649.450928,606.300720 635.962280,621.813782 
	C626.819519,632.328674 616.464905,641.346008 605.146179,649.059143 
	C593.031860,657.314331 579.688599,663.375000 565.702209,668.353149 
	C544.248352,675.989197 522.299194,677.520020 499.468414,676.903442 
z"/>
<path fill="#FF9F00" opacity="1.000000" stroke="none" 
	d="
M365.950745,585.109070 
	C358.501923,572.979431 355.205109,559.373901 352.029999,545.738037 
	C351.192719,542.142334 350.683411,538.470154 350.445709,534.398438 
	C352.490601,532.896973 354.365570,532.077271 355.693695,530.721863 
	C362.555847,523.718323 369.127502,516.426147 376.079651,509.515533 
	C391.595551,494.092224 407.362274,478.921173 422.874023,463.493744 
	C459.694458,426.873291 496.431183,390.168640 533.161438,353.457703 
	C534.017151,352.602417 534.395020,351.269073 534.995789,350.158722 
	C546.714172,353.093048 558.502136,355.781708 570.118591,359.075531 
	C575.185486,360.512238 579.900757,363.189087 584.645569,365.793335 
	C564.020142,386.681305 543.507202,407.061066 523.079468,427.525909 
	C522.015869,428.591492 521.678040,430.381561 520.575806,431.908600 
	C513.030273,432.310181 505.751282,431.794250 498.819427,433.108795 
	C466.608765,439.217102 445.997894,458.894562 435.047852,489.282379 
	C431.227966,499.883057 432.121307,511.016815 431.480225,522.020630 
	C429.807434,522.934082 428.304260,523.645020 427.200989,524.753784 
	C420.803101,531.183899 414.573151,537.781921 408.142944,544.178955 
	C401.715637,550.573181 395.110748,556.788574 388.600067,563.099304 
	C381.040955,570.426270 373.499725,577.771667 365.950745,585.109070 
z"/>
<path fill="#FFBF00" opacity="1.000000" stroke="none" 
	d="
M725.425537,777.911621 
	C726.941101,771.994324 728.371643,765.787842 730.667419,759.919861 
	C738.906860,738.860168 747.477905,717.930481 755.849243,696.922058 
	C764.331909,675.634216 772.707336,654.303650 781.166626,633.006470 
	C786.434265,619.744690 791.774536,606.511658 797.074646,593.262756 
	C802.436401,579.859497 807.770325,566.445068 813.149353,553.048828 
	C824.908081,523.764343 836.674744,494.483002 848.464966,465.211182 
	C853.308899,453.185028 858.170898,441.165405 863.166016,429.201782 
	C863.811829,427.654968 865.308533,426.463409 866.764709,425.032990 
	C873.675354,433.061951 880.232300,441.165222 886.766479,449.919464 
	C883.481079,458.925385 880.240417,467.288971 876.951782,475.633667 
	C866.161194,503.013611 855.452515,530.426453 844.525024,557.751648 
	C832.608948,587.548950 820.477478,617.260071 808.452637,647.013916 
	C803.343323,659.656189 798.183105,672.278992 793.220947,684.979004 
	C791.555237,689.242310 790.431274,693.717224 789.059692,698.095459 
	C789.059692,698.095459 789.027405,698.023438 788.724792,698.127380 
	C787.945007,699.213867 787.467834,700.196411 786.990723,701.178894 
	C786.347717,701.939514 785.704712,702.700134 784.783936,703.900269 
	C784.310120,704.575073 784.154724,704.834656 784.039917,705.118530 
	C772.236755,720.009155 760.485107,734.941040 748.611694,749.775452 
	C741.080688,759.184570 733.368408,768.448608 725.425537,777.911621 
z"/>
<path fill="#FFA600" opacity="1.000000" stroke="none" 
	d="
M315.641357,229.026566 
	C312.724579,237.403793 309.584259,245.956635 306.242310,254.429947 
	C293.117310,287.707245 280.040588,321.004303 266.728455,354.206848 
	C256.208954,380.444183 245.277054,406.516022 234.706436,432.733185 
	C227.059143,451.699951 219.755859,470.805145 212.205078,489.811218 
	C202.937592,513.138489 193.582153,536.430786 184.245377,559.730469 
	C177.878815,575.618042 171.479080,591.492371 165.025818,607.742432 
	C159.645218,601.774231 154.332321,595.436829 149.021393,589.097717 
	C148.084396,587.979309 147.155655,586.853943 146.116776,585.035034 
	C152.328873,568.250488 158.548828,552.123230 164.990631,536.084961 
	C173.110550,515.868713 181.531754,495.773071 189.597290,475.535461 
	C196.307541,458.698486 202.652588,441.716278 209.238144,424.829102 
	C212.198776,417.237183 215.343903,409.717041 218.418228,402.169586 
	C225.192215,385.539459 231.994690,368.920929 238.746277,352.281769 
	C243.434891,340.726807 248.231903,329.210693 252.620651,317.541870 
	C254.258286,313.187775 254.874588,308.449554 255.956589,303.886505 
	C255.975494,303.539612 256.131989,303.273712 257.012512,302.969330 
	C258.718201,301.195374 259.837463,299.540863 260.956726,297.886353 
	C260.956696,297.886353 261.018799,297.423096 261.258057,297.044128 
	C261.701843,296.434784 261.855988,296.174591 261.959808,295.884583 
	C272.451324,282.617676 282.897675,269.314728 293.450073,256.096405 
	C300.665222,247.058395 308.028229,238.138412 315.641357,229.026566 
z"/>
<path fill="#FFC600" opacity="1.000000" stroke="none" 
	d="
M789.373291,697.959229 
	C790.431274,693.717224 791.555237,689.242310 793.220947,684.979004 
	C798.183105,672.278992 803.343323,659.656189 808.452637,647.013916 
	C820.477478,617.260071 832.608948,587.548950 844.525024,557.751648 
	C855.452515,530.426453 866.161194,503.013611 876.951782,475.633667 
	C880.240417,467.288971 883.481079,458.925385 886.895996,450.231384 
	C894.940369,459.669952 902.904358,469.390656 910.705688,479.240326 
	C919.544800,490.400146 924.110596,503.104797 922.931946,517.394897 
	C921.839600,530.638367 915.336975,541.490234 907.030029,551.587769 
	C895.395264,565.730469 884.213989,580.245483 872.771851,594.547791 
	C862.849243,606.950745 852.799316,619.251831 842.868652,631.648438 
	C832.851807,644.152588 822.953430,656.751831 812.925903,669.247375 
	C805.241821,678.822632 797.437683,688.301392 789.373291,697.959229 
z"/>
<path fill="#FF9F00" opacity="1.000000" stroke="none" 
	d="
M255.640671,304.026031 
	C254.874588,308.449554 254.258286,313.187775 252.620651,317.541870 
	C248.231903,329.210693 243.434891,340.726807 238.746277,352.281769 
	C231.994690,368.920929 225.192215,385.539459 218.418228,402.169586 
	C215.343903,409.717041 212.198776,417.237183 209.238144,424.829102 
	C202.652588,441.716278 196.307541,458.698486 189.597290,475.535461 
	C181.531754,495.773071 173.110550,515.868713 164.990631,536.084961 
	C158.548828,552.123230 152.328873,568.250488 145.983871,584.725586 
	C137.636246,574.658752 129.315170,564.204651 121.247559,553.201904 
	C122.289001,550.868347 123.137024,549.107239 123.856003,547.294983 
	C136.641586,515.067017 149.320877,482.796539 162.220963,450.614502 
	C169.254028,433.068909 176.681732,415.681763 183.848389,398.189117 
	C184.518387,396.553802 184.589554,394.673096 184.938751,392.906342 
	C184.938751,392.906342 184.974731,392.979187 185.272507,392.876923 
	C186.032425,391.811920 186.494568,390.849213 186.956711,389.886505 
	C200.596375,372.796204 214.239380,355.708557 227.874512,338.614624 
	C237.030380,327.136230 246.175064,315.648895 255.640671,304.026031 
z"/>
<path fill="#FF9800" opacity="1.000000" stroke="none" 
	d="
M534.554565,350.088806 
	C534.395020,351.269073 534.017151,352.602417 533.161438,353.457703 
	C496.431183,390.168640 459.694458,426.873291 422.874023,463.493744 
	C407.362274,478.921173 391.595551,494.092224 376.079651,509.515533 
	C369.127502,516.426147 362.555847,523.718323 355.693695,530.721863 
	C354.365570,532.077271 352.490601,532.896973 350.516968,533.983276 
	C348.090088,517.912476 348.419098,501.865143 351.432617,485.362915 
	C353.737122,483.567780 355.891479,482.526337 357.494110,480.930725 
	C399.891541,438.719940 442.236145,396.456055 484.548737,354.160156 
	C485.289856,353.419312 485.529358,352.176636 486.002930,351.168121 
	C500.479736,348.406281 515.021362,348.121582 529.628845,349.962128 
	C531.102661,350.147858 532.617554,350.007782 534.554565,350.088806 
z"/>
<path fill="#FFD600" opacity="1.000000" stroke="none" 
	d="
M365.113831,693.956726 
	C369.833130,699.560608 374.658539,705.079102 379.247650,710.787659 
	C386.775818,720.152161 394.558990,729.350464 401.497620,739.141235 
	C412.931244,755.274658 414.582245,773.172729 406.385712,790.830566 
	C398.536896,807.739319 384.713043,817.642456 365.580383,820.166687 
	C351.987335,821.960022 340.308807,818.109680 329.339233,810.962708 
	C325.945435,808.751526 323.230927,805.497742 320.231262,802.073120 
	C321.872314,796.876038 323.344116,792.270325 325.125824,787.787659 
	C336.796844,758.424255 348.487274,729.068237 360.345795,699.780334 
	C361.244934,697.559692 363.492859,695.885132 365.113831,693.956726 
z"/>
<path fill="#FF8D00" opacity="1.000000" stroke="none" 
	d="
M659.890991,331.047028 
	C654.083740,324.022461 648.199524,317.059723 642.490295,309.956360 
	C636.472656,302.469147 630.302612,295.073761 624.757996,287.242645 
	C607.551941,262.941376 612.974487,230.498062 638.186951,213.757980 
	C644.529236,209.546921 652.830322,207.873932 660.481323,206.135895 
	C674.281921,203.000854 686.447205,207.639145 697.433228,215.862244 
	C700.049683,217.820663 702.377319,220.165024 704.670715,222.833740 
	C697.739929,239.496109 690.864746,255.611115 684.244324,271.830078 
	C677.793945,287.632172 671.647949,303.558289 665.269165,319.389954 
	C663.671814,323.354370 661.693909,327.165466 659.890991,331.047028 
z"/>
<path fill="#FFB100" opacity="1.000000" stroke="none" 
	d="
M755.575195,575.088745 
	C756.084961,575.850342 756.703735,576.919678 756.415466,577.610474 
	C751.319092,589.819824 746.062927,601.962402 740.944458,614.162720 
	C736.521667,624.704773 732.094360,635.248413 727.908081,645.885498 
	C721.052612,663.305054 714.566162,680.871216 707.600159,698.245667 
	C700.138611,716.855957 692.209534,735.278198 684.654968,753.851807 
	C676.540894,773.801025 668.654907,793.842896 660.575623,813.806396 
	C659.792847,815.740723 658.349609,817.407776 657.108704,819.515625 
	C647.717773,817.906189 639.300964,814.198059 632.162598,807.071655 
	C633.477234,803.759399 635.101196,801.211426 636.195618,798.453308 
	C643.470337,780.120239 650.569824,761.717651 657.845825,743.385132 
	C666.532715,721.497803 675.433594,699.695007 684.041748,677.777100 
	C686.990601,670.268860 689.335999,662.523621 691.957031,654.886658 
	C698.262146,646.800354 704.520813,638.677185 710.883057,630.636108 
	C720.906067,617.968262 730.982178,605.342346 741.069092,592.725281 
	C745.759705,586.858032 750.528625,581.053406 755.575195,575.088745 
z"/>
<path fill="#FFB100" opacity="1.000000" stroke="none" 
	d="
M273.355865,446.977539 
	C274.323364,442.498230 275.244629,437.741394 276.954041,433.286987 
	C281.703491,420.910828 286.726288,408.638214 291.741852,396.365875 
	C298.199066,380.566162 304.819458,364.832977 311.242340,349.019470 
	C314.985291,339.804077 318.390320,330.451782 322.104950,321.224518 
	C329.161041,303.696899 336.415680,286.248962 343.424530,268.702698 
	C348.717377,255.452316 353.723633,242.087708 358.922150,228.799255 
	C361.336487,222.627747 363.820740,216.479767 366.472351,210.408066 
	C367.017456,209.159897 368.448486,208.298645 369.789398,207.103882 
	C378.794159,207.892090 386.032288,212.021515 392.879547,217.956177 
	C389.378113,228.105621 385.832336,237.575684 382.139343,246.987991 
	C377.960724,257.638153 373.682892,268.249878 369.389282,278.854401 
	C362.298737,296.366699 355.203156,313.877167 348.028595,331.355103 
	C343.006134,343.590149 337.802704,355.751129 332.827972,368.005219 
	C332.372009,369.128387 332.991913,370.688324 333.112244,372.045441 
	C329.947327,376.326080 326.896820,380.697205 323.596771,384.871002 
	C312.000488,399.537842 300.353485,414.165009 288.652130,428.748230 
	C283.752777,434.854279 278.669159,440.812531 273.355865,446.977539 
z"/>
<path fill="#FFAC00" opacity="1.000000" stroke="none" 
	d="
M365.973694,585.484619 
	C373.499725,577.771667 381.040955,570.426270 388.600067,563.099304 
	C395.110748,556.788574 401.715637,550.573181 408.142944,544.178955 
	C414.573151,537.781921 420.803101,531.183899 427.200989,524.753784 
	C428.304260,523.645020 429.807434,522.934082 431.550842,522.429565 
	C432.317566,524.559631 432.608093,526.311401 433.009827,528.037292 
	C435.054382,536.820374 437.076385,545.672791 442.654694,553.029358 
	C448.299133,560.473267 454.282867,567.659912 459.742371,574.983276 
	C457.592346,575.833069 455.407745,576.247559 454.105316,577.546631 
	C435.962189,595.641907 417.939819,613.858215 399.887970,632.045044 
	C387.451263,620.457397 377.241730,607.139526 369.061768,592.258362 
	C367.924347,590.189270 367.012787,587.995911 365.973694,585.484619 
z"/>
<path fill="#FFB800" opacity="1.000000" stroke="none" 
	d="
M660.880127,442.115906 
	C659.062500,443.991943 657.174866,445.366974 655.540466,446.996155 
	C637.412109,465.067047 619.348572,483.203125 601.184265,501.237823 
	C599.347473,503.061523 596.967346,504.338104 594.428223,505.513550 
	C592.405273,490.427856 587.420471,476.992889 578.558411,465.062592 
	C576.069641,461.712067 573.492920,458.426880 571.021851,454.754120 
	C571.886230,452.968353 572.414429,451.271301 573.525085,450.152435 
	C589.463989,434.096863 605.399170,418.035187 621.577698,402.222992 
	C623.743469,400.106201 627.234619,399.345337 630.112000,397.956604 
	C639.341980,407.131470 647.320496,417.288635 653.852112,428.546326 
	C656.354065,432.858643 658.577515,437.332581 660.880127,442.115906 
z"/>
<path fill="#FFB800" opacity="1.000000" stroke="none" 
	d="
M400.030884,632.363098 
	C417.939819,613.858215 435.962189,595.641907 454.105316,577.546631 
	C455.407745,576.247559 457.592346,575.833069 460.052734,575.118042 
	C475.046448,587.040833 491.316071,593.749146 510.003876,594.166809 
	C508.855103,596.091919 508.039001,598.346985 506.506866,599.891907 
	C487.880157,618.674316 469.113098,637.317505 450.504517,656.117615 
	C448.881531,657.757263 448.120483,660.250000 446.932617,662.730225 
	C431.643250,656.701660 417.762787,648.103271 405.464539,636.982666 
	C403.780975,635.460327 401.941254,634.110718 400.030884,632.363098 
z"/>
<path fill="#FF9F00" opacity="1.000000" stroke="none" 
	d="
M730.039368,253.886139 
	C734.375610,259.111023 738.759033,264.297638 743.036011,269.570526 
	C748.346130,276.117218 753.568176,282.735321 758.718872,289.901459 
	C752.001526,307.144073 745.413086,323.815582 738.780457,340.469482 
	C730.859802,360.357452 722.901306,380.230377 714.959229,400.109833 
	C705.698975,388.632050 696.438721,377.154297 687.283752,365.102203 
	C689.475464,359.831238 691.709900,355.194031 693.623474,350.427979 
	C704.062073,324.429352 714.533447,298.442627 724.723694,272.346436 
	C727.043091,266.406799 728.295715,260.050598 730.039368,253.886139 
z"/>
<path fill="#FFCE00" opacity="1.000000" stroke="none" 
	d="
M365.055603,693.606689 
	C363.492859,695.885132 361.244934,697.559692 360.345795,699.780334 
	C348.487274,729.068237 336.796844,758.424255 325.125824,787.787659 
	C323.344116,792.270325 321.872314,796.876038 320.103699,801.765625 
	C312.630920,793.048828 305.309998,783.992615 297.993500,774.932861 
	C296.061340,772.540283 294.142975,770.136536 292.256897,767.116089 
	C293.228455,764.924133 294.385162,763.444153 295.060516,761.770020 
	C304.635773,738.034790 314.086639,714.249207 323.698486,690.528931 
	C327.997040,679.920837 332.586975,669.430847 337.044678,658.887207 
	C342.205109,664.953003 347.463348,670.939026 352.496277,677.108887 
	C356.797577,682.381958 360.840271,687.866028 365.055603,693.606689 
z"/>
<path fill="#FFAC00" opacity="1.000000" stroke="none" 
	d="
M629.977417,397.642883 
	C627.234619,399.345337 623.743469,400.106201 621.577698,402.222992 
	C605.399170,418.035187 589.463989,434.096863 573.525085,450.152435 
	C572.414429,451.271301 571.886230,452.968353 570.671875,454.703156 
	C569.464355,454.468201 568.575867,454.026611 567.894043,453.370239 
	C554.766052,440.731384 538.883484,434.111938 521.002258,431.834290 
	C521.678040,430.381561 522.015869,428.591492 523.079468,427.525909 
	C543.507202,407.061066 564.020142,386.681305 584.811035,366.116455 
	C594.597229,371.661438 604.345581,376.995605 613.486206,383.221893 
	C619.398376,387.249054 624.421326,392.581543 629.977417,397.642883 
z"/>
<path fill="#FF9400" opacity="1.000000" stroke="none" 
	d="
M729.906799,253.573959 
	C728.295715,260.050598 727.043091,266.406799 724.723694,272.346436 
	C714.533447,298.442627 704.062073,324.429352 693.623474,350.427979 
	C691.709900,355.194031 689.475464,359.831238 687.142334,364.787964 
	C677.989014,353.925964 669.082336,342.803864 660.033325,331.364380 
	C661.693909,327.165466 663.671814,323.354370 665.269165,319.389954 
	C671.647949,303.558289 677.793945,287.632172 684.244324,271.830078 
	C690.864746,255.611115 697.739929,239.496109 704.806152,223.143951 
	C710.032959,228.819336 715.013672,234.640228 719.862244,240.569168 
	C723.259644,244.723663 726.476624,249.025665 729.906799,253.573959 
z"/>
<path fill="#FFA600" opacity="1.000000" stroke="none" 
	d="
M715.093750,400.421326 
	C722.901306,380.230377 730.859802,360.357452 738.780457,340.469482 
	C745.413086,323.815582 752.001526,307.144073 758.857117,290.217529 
	C768.014893,301.077637 776.924988,312.200562 785.618164,323.719574 
	C784.506592,325.213348 783.270264,326.174011 782.767212,327.428711 
	C768.784424,362.303223 754.875977,397.207550 740.955200,432.106964 
	C735.674866,425.882507 730.331665,419.710022 725.136597,413.415192 
	C721.723083,409.279114 718.523560,404.966431 715.093750,400.421326 
z"/>
<path fill="#FFC600" opacity="1.000000" stroke="none" 
	d="
M337.016602,658.537476 
	C332.586975,669.430847 327.997040,679.920837 323.698486,690.528931 
	C314.086639,714.249207 304.635773,738.034790 295.060516,761.770020 
	C294.385162,763.444153 293.228455,764.924133 292.122772,766.800659 
	C285.631409,759.361023 279.320282,751.608948 272.990234,743.872375 
	C270.736572,741.117920 268.436981,738.401123 266.358154,735.259766 
	C267.848938,732.992554 269.547485,731.295898 270.367615,729.247559 
	C278.330994,709.358398 286.163483,689.416687 294.000061,669.476868 
	C299.706970,654.955933 305.363831,640.415283 311.042969,625.883362 
	C319.691498,636.651489 328.340027,647.419678 337.016602,658.537476 
z"/>
<path fill="#FF9400" opacity="1.000000" stroke="none" 
	d="
M485.598602,351.096375 
	C485.529358,352.176636 485.289856,353.419312 484.548737,354.160156 
	C442.236145,396.456055 399.891541,438.719940 357.494110,480.930725 
	C355.891479,482.526337 353.737122,483.567780 351.503906,484.934448 
	C354.211365,467.851318 359.456818,451.470917 367.953888,436.182770 
	C374.290649,424.781525 381.428619,414.069427 390.077423,404.161530 
	C403.174042,389.158356 418.582275,377.234528 435.873077,367.863495 
	C449.954529,360.231812 465.033142,354.735474 480.959595,351.990173 
	C482.384308,351.744598 483.783325,351.350037 485.598602,351.096375 
z"/>
<path fill="#FFBF00" opacity="1.000000" stroke="none" 
	d="
M310.911560,625.570190 
	C305.363831,640.415283 299.706970,654.955933 294.000061,669.476868 
	C286.163483,689.416687 278.330994,709.358398 270.367615,729.247559 
	C269.547485,731.295898 267.848938,732.992554 266.218689,734.945801 
	C257.648132,724.916687 249.416840,714.794067 241.489502,704.229126 
	C243.078171,701.697693 244.697311,699.742798 245.597321,697.499390 
	C258.592285,665.108276 271.465332,632.668152 284.499176,600.292847 
	C285.053864,598.914978 286.883942,598.050598 288.119934,596.947021 
	C294.365692,604.747253 300.611755,612.547302 306.857025,620.347900 
	C308.166199,621.983093 309.472534,623.620544 310.911560,625.570190 
z"/>
<path fill="#FFB800" opacity="1.000000" stroke="none" 
	d="
M287.981140,596.636108 
	C286.883942,598.050598 285.053864,598.914978 284.499176,600.292847 
	C271.465332,632.668152 258.592285,665.108276 245.597321,697.499390 
	C244.697311,699.742798 243.078171,701.697693 241.474762,703.890442 
	C233.163788,694.219543 225.171494,684.444885 217.521149,674.300415 
	C218.825150,672.717773 220.123138,671.644409 220.693573,670.269226 
	C223.876968,662.594849 226.855133,654.835754 229.957657,647.127319 
	C237.285294,628.921509 244.607925,610.713501 252.004425,592.535583 
	C255.623871,583.640320 259.403687,574.810303 263.110901,565.950745 
	C270.071320,574.609680 277.022614,583.276001 284.000732,591.920593 
	C285.223511,593.435425 286.558960,594.859314 287.981140,596.636108 
z"/>
<path fill="#FFB100" opacity="1.000000" stroke="none" 
	d="
M833.059509,382.605774 
	C831.544495,384.418365 829.246033,385.583160 828.517334,387.383331 
	C815.556763,419.402710 802.806274,451.507080 789.927246,483.559631 
	C789.160217,485.468445 787.690918,487.095032 786.205078,488.946747 
	C777.964172,479.250397 770.066467,469.460266 762.388794,459.282379 
	C763.841797,457.457031 765.542114,456.213654 766.232849,454.550873 
	C771.321594,442.300354 776.229553,429.974365 781.154480,417.656189 
	C788.297119,399.790802 795.327148,381.879822 802.588379,364.062897 
	C804.288269,359.891785 806.722778,356.020050 808.819336,352.010590 
	C816.881836,362.091644 824.944275,372.172699 833.059509,382.605774 
z"/>
<path fill="#FFAC00" opacity="1.000000" stroke="none" 
	d="
M808.799988,351.674744 
	C806.722778,356.020050 804.288269,359.891785 802.588379,364.062897 
	C795.327148,381.879822 788.297119,399.790802 781.154480,417.656189 
	C776.229553,429.974365 771.321594,442.300354 766.232849,454.550873 
	C765.542114,456.213654 763.841797,457.457031 762.256104,458.966797 
	C754.939514,450.295135 747.975830,441.551270 740.983643,432.457184 
	C754.875977,397.207550 768.784424,362.303223 782.767212,327.428711 
	C783.270264,326.174011 784.506592,325.213348 785.757996,324.038818 
	C793.670044,333.087585 801.225342,342.213226 808.799988,351.674744 
z"/>
<path fill="#FF9800" opacity="1.000000" stroke="none" 
	d="
M184.625366,393.042114 
	C184.589554,394.673096 184.518387,396.553802 183.848389,398.189117 
	C176.681732,415.681763 169.254028,433.068909 162.220963,450.614502 
	C149.320877,482.796539 136.641586,515.067017 123.856003,547.294983 
	C123.137024,549.107239 122.289001,550.868347 121.195358,552.849670 
	C107.741722,539.686584 101.015129,524.307129 103.756874,505.001404 
	C105.427078,493.240967 111.448120,484.112793 118.318787,475.285156 
	C131.151337,458.797546 144.267395,442.529388 157.355011,426.241821 
	C166.261856,415.157196 175.320984,404.194916 184.625366,393.042114 
z"/>
<path fill="#FFB100" opacity="1.000000" stroke="none" 
	d="
M262.972412,565.634277 
	C259.403687,574.810303 255.623871,583.640320 252.004425,592.535583 
	C244.607925,610.713501 237.285294,628.921509 229.957657,647.127319 
	C226.855133,654.835754 223.876968,662.594849 220.693573,670.269226 
	C220.123138,671.644409 218.825150,672.717773 217.507507,673.961304 
	C210.432831,665.577881 203.713745,657.163696 196.939728,648.397827 
	C200.156723,640.456604 203.561768,632.921143 206.670029,625.265076 
	C211.599380,613.123352 216.311768,600.893738 221.149918,588.714844 
	C227.088638,573.765564 233.039871,558.821106 239.059784,543.904480 
	C239.588928,542.593323 240.666794,541.503601 241.800613,540.130493 
	C249.018936,548.405945 255.926437,556.861816 262.972412,565.634277 
z"/>
<path fill="#FFB800" opacity="1.000000" stroke="none" 
	d="
M333.422394,371.912781 
	C332.991913,370.688324 332.372009,369.128387 332.827972,368.005219 
	C337.802704,355.751129 343.006134,343.590149 348.028595,331.355103 
	C355.203156,313.877167 362.298737,296.366699 369.389282,278.854401 
	C373.682892,268.249878 377.960724,257.638153 382.139343,246.987991 
	C385.832336,237.575684 389.378113,228.105621 393.015259,218.272659 
	C415.479797,237.153946 416.532776,269.456543 398.365326,291.270050 
	C385.114685,307.179901 372.545868,323.656464 359.605896,339.826630 
	C351.042999,350.527039 342.361145,361.132294 333.422394,371.912781 
z"/>
<path fill="#FFAC00" opacity="1.000000" stroke="none" 
	d="
M691.640747,655.025635 
	C689.335999,662.523621 686.990601,670.268860 684.041748,677.777100 
	C675.433594,699.695007 666.532715,721.497803 657.845825,743.385132 
	C650.569824,761.717651 643.470337,780.120239 636.195618,798.453308 
	C635.101196,801.211426 633.477234,803.759399 632.027588,806.758972 
	C615.595093,794.211182 610.790466,768.493103 618.640198,749.653442 
	C622.488403,740.417725 628.958984,733.200317 634.963501,725.568237 
	C644.958862,712.863647 655.022644,700.212341 665.124939,687.592468 
	C673.809204,676.744080 682.587524,665.971008 691.640747,655.025635 
z"/>
<path fill="#FF9F00" opacity="1.000000" stroke="none" 
	d="
M260.646606,298.020874 
	C259.837463,299.540863 258.718201,301.195374 257.242310,302.903625 
	C258.035950,301.356720 259.186218,299.756042 260.646606,298.020874 
z"/>
<path fill="#FF9800" opacity="1.000000" stroke="none" 
	d="
M186.653046,390.016205 
	C186.494568,390.849213 186.032425,391.811920 185.236191,392.858704 
	C185.384537,392.010437 185.866974,391.078156 186.653046,390.016205 
z"/>
<path fill="#FFC600" opacity="1.000000" stroke="none" 
	d="
M787.296143,701.036682 
	C787.467834,700.196411 787.945007,699.213867 788.760620,698.143799 
	C788.599976,699.002319 788.100769,699.948364 787.296143,701.036682 
z"/>
<path fill="#FF9F00" opacity="1.000000" stroke="none" 
	d="
M261.711182,295.974731 
	C261.855988,296.174591 261.701843,296.434784 261.332489,296.822601 
	C261.265930,296.674988 261.364227,296.369934 261.711182,295.974731 
z"/>
<path fill="#FFC600" opacity="1.000000" stroke="none" 
	d="
M784.288635,705.028015 
	C784.154724,704.834656 784.310120,704.575073 784.670105,704.182007 
	C784.735168,704.328674 784.636292,704.633118 784.288635,705.028015 
z"/>
<path fill="#000000" opacity="1.000000" stroke="none" 
	d="
M520.575806,431.908600 
	C538.883484,434.111938 554.766052,440.731384 567.894043,453.370239 
	C568.575867,454.026611 569.464355,454.468201 570.606628,455.060760 
	C573.492920,458.426880 576.069641,461.712067 578.558411,465.062592 
	C587.420471,476.992889 592.405273,490.427856 594.092224,505.581787 
	C593.958313,515.979797 594.167175,525.918945 591.100159,535.688354 
	C586.715088,549.656372 579.403625,561.518738 568.891418,571.742371 
	C559.218506,581.149780 548.076355,587.910889 535.179321,591.143799 
	C527.298889,593.119263 518.926331,593.131653 510.389343,594.096252 
	C491.316071,593.749146 475.046448,587.040833 460.428345,575.094055 
	C454.282867,567.659912 448.299133,560.473267 442.654694,553.029358 
	C437.076385,545.672791 435.054382,536.820374 433.009827,528.037292 
	C432.608093,526.311401 432.317566,524.559631 431.905151,522.410828 
	C432.121307,511.016815 431.227966,499.883057 435.047852,489.282379 
	C445.997894,458.894562 466.608765,439.217102 498.819427,433.108795 
	C505.751282,431.794250 513.030273,432.310181 520.575806,431.908600 
z"/>
</svg>